<svg width="16" height="16" viewBox="0 0 16 16" fill="none" xmlns="http://www.w3.org/2000/svg">
<path d="M2.5 1.5H5.5C6.05228 1.5 6.5 1.94772 6.5 2.5V5.5C6.5 6.05228 6.05228 6.5 5.5 6.5H2.5C1.94772 6.5 1.5 6.05228 1.5 5.5V2.5C1.5 1.94772 1.94772 1.5 2.5 1.5Z" stroke="white"/>
<path d="M12.7073 1.17154L12.7074 1.17165L14.8284 3.29265L14.8286 3.29276C14.9215 3.38563 14.9952 3.4959 15.0455 3.61727C15.0958 3.73863 15.1217 3.86872 15.1217 4.0001C15.1217 4.13147 15.0958 4.26156 15.0455 4.38293C14.9952 4.5043 14.9215 4.61456 14.8286 4.70743L14.8285 4.70746L12.7065 6.82846L12.7063 6.82866C12.6135 6.92158 12.5032 6.9953 12.3818 7.0456C12.2605 7.09589 12.1304 7.12178 11.999 7.12178C11.8676 7.12178 11.7375 7.09589 11.6162 7.0456C11.4948 6.9953 11.3845 6.92158 11.2917 6.82866L11.2916 6.82854L9.17055 4.70754L9.17044 4.70743C9.07751 4.61456 9.0038 4.5043 8.9535 4.38293C8.90321 4.26156 8.87732 4.13147 8.87732 4.0001C8.87732 3.86872 8.90321 3.73863 8.9535 3.61727C9.0038 3.4959 9.07751 3.38563 9.17044 3.29276L9.17047 3.29273L11.2925 1.17173L11.2927 1.17154C11.3855 1.07861 11.4958 1.00489 11.6172 0.9546C11.7385 0.904305 11.8686 0.878418 12 0.878418C12.1314 0.878418 12.2615 0.904305 12.3828 0.9546C12.5042 1.00489 12.6145 1.07861 12.7073 1.17154Z" stroke="white"/>
<path d="M2.5 9.5H5.5C6.05228 9.5 6.5 9.94772 6.5 10.5V13.5C6.5 14.0523 6.05228 14.5 5.5 14.5H2.5C1.94772 14.5 1.5 14.0523 1.5 13.5V10.5C1.5 9.94772 1.94772 9.5 2.5 9.5Z" stroke="white"/>
<path d="M10.5 9.5H13.5C14.0523 9.5 14.5 9.94772 14.5 10.5V13.5C14.5 14.0523 14.0523 14.5 13.5 14.5H10.5C9.94772 14.5 9.5 14.0523 9.5 13.5V10.5C9.5 9.94772 9.94772 9.5 10.5 9.5Z" stroke="white"/>
</svg>
