<svg width="16" height="16" viewBox="0 0 16 16" fill="none" xmlns="http://www.w3.org/2000/svg">
<path d="M5.5 1H2.5C1.67157 1 1 1.67157 1 2.5V5.5C1 6.32843 1.67157 7 2.5 7H5.5C6.32843 7 7 6.32843 7 5.5V2.5C7 1.67157 6.32843 1 5.5 1Z" fill="white"/>
<path d="M13.061 0.818098C12.9217 0.678708 12.7563 0.568133 12.5742 0.492691C12.3922 0.417248 12.1971 0.378418 12 0.378418C11.8029 0.378418 11.6078 0.417248 11.4258 0.492691C11.2437 0.568133 11.0783 0.678708 10.939 0.818098L8.817 2.9391C8.67761 3.0784 8.56703 3.2438 8.49159 3.42585C8.41615 3.6079 8.37732 3.80303 8.37732 4.0001C8.37732 4.19716 8.41615 4.39229 8.49159 4.57435C8.56703 4.7564 8.67761 4.9218 8.817 5.0611L10.938 7.1821C11.0773 7.32149 11.2427 7.43206 11.4248 7.5075C11.6068 7.58295 11.8019 7.62178 11.999 7.62178C12.1961 7.62178 12.3912 7.58295 12.5732 7.5075C12.7553 7.43206 12.9207 7.32149 13.06 7.1821L15.182 5.0611C15.3214 4.9218 15.432 4.7564 15.5074 4.57435C15.5828 4.39229 15.6217 4.19716 15.6217 4.0001C15.6217 3.80303 15.5828 3.6079 15.5074 3.42585C15.432 3.2438 15.3214 3.0784 15.182 2.9391L13.061 0.818098Z" fill="white"/>
<path d="M5.5 9H2.5C1.67157 9 1 9.67157 1 10.5V13.5C1 14.3284 1.67157 15 2.5 15H5.5C6.32843 15 7 14.3284 7 13.5V10.5C7 9.67157 6.32843 9 5.5 9Z" fill="white"/>
<path d="M13.5 9H10.5C9.67157 9 9 9.67157 9 10.5V13.5C9 14.3284 9.67157 15 10.5 15H13.5C14.3284 15 15 14.3284 15 13.5V10.5C15 9.67157 14.3284 9 13.5 9Z" fill="white"/>
</svg>
