<svg width="16" height="16" viewBox="0 0 16 16" fill="none" xmlns="http://www.w3.org/2000/svg">
<g clip-path="url(#clip0_48_145)">
<path d="M14.3333 12.3334C14.3333 12.3334 12.6666 10 12.6666 8.00002V5.33335C12.6666 4.09568 12.175 2.90869 11.2998 2.03352C10.4246 1.15835 9.23763 0.666687 7.99996 0.666687V0.666687C6.76228 0.666687 5.5753 1.15835 4.70013 2.03352C3.82496 2.90869 3.33329 4.09568 3.33329 5.33335V8.00002C3.33329 10 1.66663 12.3334 1.66663 12.3334H14.3333Z" stroke="#1B2023" stroke-miterlimit="10" stroke-linecap="square"/>
<path d="M9.66659 13.6667C9.66659 14.1087 9.49099 14.5326 9.17843 14.8452C8.86587 15.1578 8.44195 15.3334 7.99992 15.3334C7.55789 15.3334 7.13397 15.1578 6.82141 14.8452C6.50885 14.5326 6.33325 14.1087 6.33325 13.6667" stroke="#1B2023" stroke-miterlimit="10"/>
<circle cx="12.5" cy="3.5" r="2.5" fill="#0F005C"/>
</g>
<defs>
<clipPath id="clip0_48_145">
<rect width="16" height="16" fill="white"/>
</clipPath>
</defs>
</svg>
