<svg width="8" height="14" viewBox="0 0 8 14" fill="none" xmlns="http://www.w3.org/2000/svg">
<path opacity="0.5" d="M5.94674 7.35784L6.30063 7.00442L5.94711 6.65064L0.654476 1.354C0.654419 1.35395 0.654362 1.35389 0.654305 1.35383C0.607971 1.30732 0.571237 1.25215 0.546198 1.19146C0.521128 1.13069 0.508273 1.06558 0.508366 0.999849C0.508459 0.934116 0.521498 0.869044 0.546739 0.808349C0.57198 0.747654 0.608929 0.692526 0.655476 0.64611C0.702022 0.599695 0.757256 0.562902 0.818022 0.537832C0.878788 0.512763 0.943896 0.499908 1.00963 0.5C1.07536 0.500093 1.14044 0.513133 1.20113 0.538374C1.26183 0.563615 1.31695 0.600563 1.36337 0.64711L1.71673 0.294747L1.36337 0.647112L7.37842 6.67913C7.46129 6.7731 7.50594 6.89487 7.50331 7.02036C7.50061 7.14867 7.44868 7.27103 7.35827 7.36211C7.35815 7.36222 7.35804 7.36234 7.35792 7.36245L1.35887 13.3615L1.35874 13.3616C1.26444 13.456 1.13651 13.509 1.0031 13.5091C0.869688 13.5091 0.741722 13.4562 0.647352 13.3619C0.552981 13.2676 0.499938 13.1396 0.499891 13.0062C0.499845 12.8729 0.552727 12.745 0.646916 12.6507C0.646978 12.6506 0.647039 12.6505 0.647101 12.6505L5.94674 7.35784Z" stroke="black"/>
</svg>
