<svg width="29" height="22" viewBox="0 0 29 22" fill="none" xmlns="http://www.w3.org/2000/svg">
<path d="M18.494 12.082C18.4948 12.9251 18.2455 13.7495 17.7777 14.4509C17.3098 15.1523 16.6445 15.6992 15.8658 16.0224C15.0871 16.3456 14.23 16.4306 13.403 16.2666C12.576 16.1026 11.8162 15.697 11.2197 15.1011C10.6233 14.5052 10.217 13.7458 10.0522 12.9189C9.88741 12.0921 9.97158 11.2349 10.294 10.4559C10.6165 9.67691 11.1628 9.01104 11.8637 8.54255C12.5647 8.07406 13.3889 7.824 14.232 7.824C15.3624 7.824 16.4464 8.27303 17.2457 9.07231C18.045 9.87159 18.494 10.9556 18.494 12.086V12.082Z" fill="white"/>
<path d="M26.2 3.558H22.16C21.9921 3.55724 21.8262 3.52124 21.6731 3.45234C21.5199 3.38344 21.3829 3.28316 21.271 3.158C19.166 0.801 18.371 0 17.513 0H11.178C10.311 0 9.458 0.8 7.346 3.165C7.23501 3.289 7.09905 3.38812 6.94704 3.45585C6.79503 3.52358 6.63041 3.55839 6.464 3.558H6.164V2.965C6.16218 2.80829 6.09912 2.65851 5.9883 2.5477C5.87749 2.43688 5.72771 2.37382 5.571 2.372H3.639C3.48229 2.37382 3.33251 2.43688 3.2217 2.5477C3.11088 2.65851 3.04782 2.80829 3.046 2.965V3.558H2.491C1.85999 3.53322 1.24465 3.75814 0.778356 4.184C0.312064 4.60986 0.032404 5.20234 0 5.833V18.879C0.0244906 19.5283 0.2944 20.1441 0.755246 20.6022C1.21609 21.0603 1.83356 21.3264 2.483 21.347H26.2C26.8263 21.3172 27.4153 21.041 27.8388 20.5787C28.2624 20.1164 28.486 19.5055 28.461 18.879V5.833C28.4701 5.53298 28.4179 5.23425 28.3076 4.95507C28.1974 4.67588 28.0314 4.42209 27.8198 4.20919C27.6082 3.99629 27.3555 3.82875 27.077 3.71679C26.7985 3.60483 26.5001 3.5508 26.2 3.558ZM14.528 18.412C13.2508 18.4717 11.9854 18.1437 10.8981 17.4711C9.81076 16.7985 8.95232 15.8126 8.43556 14.6431C7.9188 13.4736 7.76789 12.1752 8.00266 10.9183C8.23743 9.6615 8.8469 8.50507 9.75099 7.60098C10.6551 6.69689 11.8115 6.08743 13.0683 5.85266C14.3252 5.61789 15.6236 5.7688 16.7931 6.28556C17.9626 6.80232 18.9485 7.66076 19.6211 8.7481C20.2937 9.83544 20.6217 11.1008 20.562 12.378C20.4869 13.9541 19.8271 15.4456 18.7114 16.5614C17.5956 17.6771 16.1041 18.3369 14.528 18.412ZM21.347 7.857C21.1563 7.857 20.97 7.80046 20.8114 7.69454C20.6529 7.58861 20.5293 7.43805 20.4564 7.26191C20.3834 7.08576 20.3643 6.89193 20.4015 6.70493C20.4387 6.51794 20.5305 6.34617 20.6653 6.21135C20.8002 6.07653 20.9719 5.98472 21.1589 5.94752C21.3459 5.91033 21.5398 5.92942 21.7159 6.00238C21.8921 6.07534 22.0426 6.1989 22.1485 6.35743C22.2545 6.51596 22.311 6.70234 22.311 6.893C22.3113 7.01967 22.2865 7.14514 22.2382 7.26222C22.1898 7.3793 22.1188 7.48567 22.0292 7.57524C21.9397 7.66481 21.8333 7.7358 21.7162 7.78416C21.5991 7.83251 21.4737 7.85726 21.347 7.857Z" fill="white"/>
</svg>
