<svg width="19" height="19" viewBox="0 0 19 19" fill="none" xmlns="http://www.w3.org/2000/svg">
<g clip-path="url(#clip0_2_838)">
<path opacity="0.994" fill-rule="evenodd" clip-rule="evenodd" d="M8.8877 -0.0185547C9.28354 -0.0185547 9.67935 -0.0185547 10.0752 -0.0185547C11.9302 0.296088 13.2229 1.32278 13.9531 3.06152C14.0806 3.41041 14.1671 3.76912 14.2129 4.1377C14.2314 5.12722 14.2376 6.11678 14.2314 7.10645C15.2361 6.9229 15.9845 7.26928 16.4766 8.14551C16.5212 8.267 16.5583 8.39069 16.5879 8.5166C16.6126 11.5348 16.6126 14.5531 16.5879 17.5713C16.3894 18.3078 15.9255 18.7779 15.1963 18.9814C11.3864 18.9814 7.57651 18.9814 3.7666 18.9814C3.03736 18.7779 2.57349 18.3078 2.375 17.5713C2.35026 14.5531 2.35026 11.5348 2.375 8.5166C2.56673 7.78061 3.0306 7.31674 3.7666 7.125C4.08797 7.10645 4.4096 7.10029 4.73145 7.10645C4.72525 6.11678 4.73145 5.12722 4.75 4.1377C5.05274 2.27657 6.07325 0.983929 7.81152 0.259766C8.16759 0.13677 8.52633 0.0439961 8.8877 -0.0185547ZM9.22168 1.57715C10.4866 1.55083 11.47 2.058 12.1719 3.09863C12.4171 3.52509 12.5655 3.98276 12.6172 4.47168C12.6357 5.34984 12.6419 6.2281 12.6357 7.10645C10.5329 7.10645 8.43003 7.10645 6.32715 7.10645C6.32095 6.2281 6.32715 5.34984 6.3457 4.47168C6.61831 2.81987 7.57696 1.85503 9.22168 1.57715ZM9.22168 10.2979C10.3097 10.2604 10.9158 10.78 11.04 11.8564C11.0258 12.4418 10.7723 12.8872 10.2793 13.1924C10.2669 13.848 10.2545 14.5036 10.2422 15.1592C10.0233 15.7601 9.62131 15.927 9.03613 15.6602C8.87901 15.5251 8.77384 15.3581 8.7207 15.1592C8.70835 14.5036 8.69595 13.848 8.68359 13.1924C7.98297 12.6985 7.77271 12.0429 8.05274 11.2256C8.30063 10.7341 8.69027 10.4249 9.22168 10.2979Z" fill="#999999"/>
</g>
<defs>
<clipPath id="clip0_2_838">
<rect width="19" height="19" fill="white"/>
</clipPath>
</defs>
</svg>
