<svg width="16" height="16" viewBox="0 0 16 16" fill="none" xmlns="http://www.w3.org/2000/svg">
<g clip-path="url(#clip0_246_137)">
<path d="M10 0.5H2C1.60218 0.5 1.22064 0.658035 0.93934 0.93934C0.658035 1.22064 0.5 1.60218 0.5 2V7C0.5 7.39782 0.658035 7.77936 0.93934 8.06066C1.22064 8.34196 1.60218 8.5 2 8.5H3.5V11.5L6.5 8.5H10C10.3978 8.5 10.7794 8.34196 11.0607 8.06066C11.342 7.77936 11.5 7.39782 11.5 7V2C11.5 1.60218 11.342 1.22064 11.0607 0.93934C10.7794 0.658035 10.3978 0.5 10 0.5Z" fill="white"/>
<path d="M6.5 12.5H9.5L12.5 15.5V12.5H14C14.3978 12.5 14.7794 12.342 15.0607 12.0607C15.342 11.7794 15.5 11.3978 15.5 11V6C15.5 5.60218 15.342 5.22064 15.0607 4.93934C14.7794 4.65804 14.3978 4.5 14 4.5H13.5" stroke="white" stroke-linecap="round" stroke-linejoin="round"/>
</g>
<defs>
<clipPath id="clip0_246_137">
<rect width="16" height="16" fill="white"/>
</clipPath>
</defs>
</svg>
