<svg width="16" height="16" viewBox="0 0 16 16" fill="none" xmlns="http://www.w3.org/2000/svg">
<g opacity="0.5">
<path d="M7.99991 15.6667C8.47209 15.6658 8.92877 15.498 9.28925 15.1931C9.64973 14.8881 9.89082 14.4655 9.96991 14H6.02991C6.109 14.4655 6.35008 14.8881 6.71056 15.1931C7.07105 15.498 7.52772 15.6658 7.99991 15.6667Z" fill="#212121"/>
<path d="M14.6046 12.8063C14.5886 12.7839 13 10.5333 13 8.66659V5.33325C13 4.00717 12.4732 2.7354 11.5355 1.79772C10.5978 0.860036 9.32603 0.333252 7.99995 0.333252C6.67387 0.333252 5.4021 0.860036 4.46442 1.79772C3.52674 2.7354 2.99995 4.00717 2.99995 5.33325V8.66659C2.99995 10.5333 1.41128 12.7839 1.39528 12.8063C1.3597 12.8561 1.33854 12.9148 1.33412 12.9759C1.3297 13.0369 1.34219 13.0981 1.37023 13.1525C1.39826 13.207 1.44075 13.2526 1.49303 13.2845C1.54532 13.3164 1.60538 13.3333 1.66662 13.3333H14.3333C14.3945 13.3333 14.4546 13.3164 14.5069 13.2845C14.5592 13.2526 14.6016 13.207 14.6297 13.1525C14.6577 13.0981 14.6702 13.0369 14.6658 12.9759C14.6614 12.9148 14.6402 12.8561 14.6046 12.8063Z" fill="#212121"/>
</g>
</svg>
