<svg width="16" height="16" viewBox="0 0 16 16" fill="none" xmlns="http://www.w3.org/2000/svg">
<g opacity="0.5">
<path d="M9.99996 9.6665H5.99996C3.61063 9.6665 1.66663 11.6105 1.66663 13.9998V14.6665C1.66663 14.8115 1.76029 14.9398 1.89829 14.9842C1.98563 15.0118 4.07629 15.6665 7.99996 15.6665C11.9236 15.6665 14.0143 15.0118 14.1016 14.9842C14.2396 14.9398 14.3333 14.8115 14.3333 14.6665V13.9998C14.3333 11.6105 12.3893 9.6665 9.99996 9.6665Z" fill="#212121"/>
<path d="M7.99992 8.33325C10.0649 8.33325 11.6666 6.00392 11.6666 3.99992C11.6666 1.97825 10.0216 0.333252 7.99992 0.333252C5.97825 0.333252 4.33325 1.97825 4.33325 3.99992C4.33325 6.00392 5.93492 8.33325 7.99992 8.33325Z" fill="#212121"/>
</g>
</svg>
