<svg width="22" height="22" viewBox="0 0 22 22" fill="none" xmlns="http://www.w3.org/2000/svg">
<g clip-path="url(#clip0_48_151)">
<path d="M20.6809 18.7358L15.884 13.9388C17.0872 12.2478 17.6111 10.1665 17.3519 8.10735C17.0927 6.04822 16.0692 4.16166 14.4844 2.82164C12.8997 1.48162 10.8692 0.785962 8.79567 0.872572C6.7221 0.959182 4.75676 1.82174 3.28925 3.28925C1.82174 4.75676 0.959182 6.7221 0.872572 8.79567C0.785962 10.8692 1.48162 12.8997 2.82164 14.4844C4.16166 16.0692 6.04822 17.0927 8.10735 17.3519C10.1665 17.6111 12.2478 17.0872 13.9388 15.884L18.7358 20.6809C18.9937 20.9389 19.3435 21.0838 19.7083 21.0838C20.0731 21.0838 20.423 20.9389 20.6809 20.6809C20.9389 20.423 21.0838 20.0731 21.0838 19.7083C21.0838 19.3435 20.9389 18.9937 20.6809 18.7358ZM2.75 9.16667C2.75 7.89757 3.12633 6.65698 3.83141 5.60176C4.53648 4.54655 5.53863 3.72411 6.71112 3.23844C7.88361 2.75278 9.17379 2.62571 10.4185 2.8733C11.6632 3.12089 12.8066 3.73201 13.7039 4.6294C14.6013 5.52679 15.2125 6.67013 15.46 7.91484C15.7076 9.15955 15.5806 10.4497 15.0949 11.6222C14.6092 12.7947 13.7868 13.7969 12.7316 14.5019C11.6764 15.207 10.4358 15.5833 9.16667 15.5833C7.46546 15.5814 5.83448 14.9047 4.63155 13.7018C3.42861 12.4989 2.75194 10.8679 2.75 9.16667Z" fill="#8E9298"/>
</g>
<defs>
<clipPath id="clip0_48_151">
<rect width="22" height="22" fill="white"/>
</clipPath>
</defs>
</svg>
