<svg width="205" height="96" viewBox="0 0 205 96" fill="none" xmlns="http://www.w3.org/2000/svg">
<path d="M2.6117 63.9216C0.9221 60.7472 0.0773 57.0096 0.0773 52.7088C0.0773 48.7152 0.7429 45.1568 2.0741 42.0336C3.4565 38.8592 4.9413 36.3248 6.5285 34.4304C8.1669 32.4848 10.1381 30.9488 12.4421 29.8224C14.7973 28.6448 17.2805 28.056 19.8917 28.056C23.5781 28.056 26.5221 29.1056 28.7237 31.2048L38.7845 22.7568C38.5797 20.9648 38.4773 19.1984 38.4773 17.4576C38.4773 6.0912 41.4725 0.407999 47.4629 0.407999C48.9989 0.407999 50.2021 0.945601 51.0725 2.0208C51.9429 3.096 52.4293 4.4784 52.5317 6.168C52.5829 8.6256 51.7893 11.0832 50.1509 13.5408C48.5637 15.9984 46.2085 18.6864 43.0853 21.6048C44.6725 32.2032 45.4661 39.4224 45.4661 43.2624C45.4661 47.0512 44.9797 50.7376 44.0069 54.3216C43.0341 57.8544 41.5493 61.08 39.5525 63.9984C37.5557 66.9168 34.8165 69.1952 31.3349 70.8336C27.8533 72.472 23.8085 73.2912 19.2005 73.2912C12.5957 73.2912 7.6037 71.0384 4.2245 66.5328C3.3029 69.7584 2.8421 73.4192 2.8421 77.5152C2.8421 81.6624 3.9173 85.3744 6.0677 88.6512C8.2693 91.9792 11.0853 93.6432 14.5157 93.6432C14.7717 93.6432 14.8997 93.8992 14.8997 94.4112C14.9509 94.9232 14.8229 95.1792 14.5157 95.1792C10.4709 95.1792 7.1429 93.2592 4.5317 89.4192C1.9205 85.6304 0.6149 81.4064 0.6149 76.7472C0.6149 72.088 1.2805 67.8128 2.6117 63.9216ZM30.0293 32.664C31.4629 34.6096 32.1797 36.8112 32.1797 39.2688C32.1797 41.6752 31.7957 43.8512 31.0277 45.7968C30.3109 47.6912 29.0053 49.3808 27.1109 50.8656C25.2677 52.2992 23.1173 53.016 20.6597 53.016C20.1477 53.016 19.7381 52.888 19.4309 52.632C19.1749 52.376 18.9957 51.9664 18.8933 51.4032C21.0949 51.4032 23.1173 50.3792 24.9605 48.3312C27.6229 45.464 28.9541 42.2384 28.9541 38.6544C28.9541 37.1696 28.6725 35.736 28.1093 34.3536C22.3749 39.2688 17.5365 44.0816 13.5941 48.792C9.6517 53.5024 6.7589 58.6224 4.9157 64.152C7.8341 68.8624 12.4165 71.2176 18.6629 71.2176C22.5029 71.2176 25.8565 70.3984 28.7237 68.76C31.6421 67.1728 33.9205 64.9968 35.5589 62.232C38.7845 56.8048 40.3973 50.2256 40.3973 42.4944C40.3973 40.6 39.9365 34.84 39.0149 25.2144L30.0293 32.664ZM26.9573 32.7408C25.3189 31 23.0661 30.1296 20.1989 30.1296C17.3317 30.1296 14.7461 30.8208 12.4421 32.2032C8.1925 34.7632 5.1461 39.064 3.3029 45.1056C2.4837 47.6656 2.0741 50.3024 2.0741 53.016C2.0741 56.0368 2.5605 58.8272 3.5333 61.3872C7.0661 52.5296 14.8741 42.9808 26.9573 32.7408ZM42.3941 13.5408C42.3941 14.9232 42.5221 16.7664 42.7781 19.0704C47.8469 14.104 50.3813 9.9056 50.3813 6.4752C50.3813 3.8128 49.4085 2.4816 47.4629 2.4816C44.0837 2.4816 42.3941 6.168 42.3941 13.5408ZM58.2182 52.0944C58.2182 58.0848 60.2918 61.08 64.439 61.08C66.0774 61.08 67.7926 60.3632 69.5846 58.9296C71.4278 57.4448 73.0918 55.6784 74.5766 53.6304C77.8534 48.92 80.1574 45.08 81.4886 42.1104L82.487 39.96H84.5606C83.6902 42.008 82.4102 44.5424 80.7206 47.5632C79.031 50.5328 77.4182 53.0416 75.8822 55.0896C74.3462 57.1376 72.5286 59.0064 70.4294 60.696C68.3302 62.3344 66.3334 63.1536 64.439 63.1536C59.1142 63.1536 55.735 60.7216 54.3014 55.8576C53.8406 54.3216 53.6102 52.4016 53.6102 50.0976C53.6102 47.7424 54.327 44.8752 55.7606 41.496C57.8598 36.4784 60.727 33.0992 64.3622 31.3584C65.7958 30.6928 67.2038 30.36 68.5862 30.36C70.0198 30.36 71.1462 30.744 71.9654 31.512C72.9382 32.4336 73.4246 33.5088 73.4246 34.7376C73.4246 35.9152 73.2966 37.016 73.0406 38.04C72.7846 39.064 72.247 39.9856 71.4278 40.8048C70.6598 41.5728 69.7894 41.9568 68.8166 41.9568C68.407 41.9568 68.0998 41.6752 67.895 41.112C68.3046 41.112 68.8422 40.3952 69.5078 38.9616C70.2246 37.4768 70.583 36.0176 70.583 34.584C70.583 33.1504 69.9686 32.4336 68.7398 32.4336C66.0774 32.4336 63.6454 34.6608 61.4438 39.1152C59.2934 43.5696 58.2182 47.896 58.2182 52.0944ZM84.5879 63.0768C80.5431 63.0768 78.5207 60.0304 78.5207 53.9376C78.5207 50.4048 79.4423 46.5392 81.2855 42.3408C83.8455 36.6576 87.0967 32.9456 91.0391 31.2048C92.4215 30.6416 93.8039 30.36 95.1863 30.36C96.6199 30.36 97.7463 30.7696 98.5655 31.5888C99.3847 32.408 99.7943 33.3296 99.7943 34.3536C99.7943 34.8144 99.5383 35.0448 99.0263 35.0448C98.5655 34.9936 98.3351 34.7376 98.3351 34.2768C98.3351 33.816 98.0791 33.4064 97.5671 33.048C97.1063 32.6384 96.4151 32.4336 95.4935 32.4336C92.2679 32.4336 89.3495 35.3264 86.7383 41.112C84.2807 46.488 83.0519 51.5824 83.0519 56.3952C83.0519 59.3648 83.6919 60.8496 84.9719 60.8496C86.3031 60.8496 87.8903 59.7488 89.7335 57.5472C91.6279 55.2944 93.3687 52.6832 94.9559 49.7136C98.3863 43.4672 100.409 39.448 101.023 37.656C101.637 35.864 102.303 34.968 103.02 34.968C104.3 34.968 104.94 36.0432 104.94 38.1936C104.94 38.8592 104.863 39.6272 104.709 40.4976C103.02 48.6896 102.098 53.4256 101.945 54.7056C101.842 55.9856 101.791 56.9072 101.791 57.4704C101.791 59.928 102.38 61.1568 103.557 61.1568C104.889 61.1568 106.757 59.3904 109.164 55.8576C111.57 52.3248 113.644 48.792 115.385 45.2592L117.996 39.96H120.069C119.762 40.5744 119.353 41.4192 118.841 42.4944C118.38 43.5184 117.433 45.3872 115.999 48.1008C114.565 50.7632 113.183 53.1184 111.852 55.1664C110.572 57.2144 109.113 59.0832 107.474 60.7728C105.887 62.4112 104.505 63.2304 103.327 63.2304C99.5383 63.2304 97.6439 60.4656 97.6439 54.936C97.6439 53.0928 97.8487 50.9424 98.2583 48.4848H97.7207C92.4983 58.2128 88.1207 63.0768 84.5879 63.0768ZM120.025 63.0768C115.981 63.0768 113.958 60.0304 113.958 53.9376C113.958 50.4048 114.88 46.5392 116.723 42.3408C119.283 36.6576 122.534 32.9456 126.477 31.2048C127.859 30.6416 129.241 30.36 130.624 30.36C132.057 30.36 133.184 30.7696 134.003 31.5888C134.822 32.408 135.232 33.3296 135.232 34.3536C135.232 34.8144 134.976 35.0448 134.464 35.0448C134.003 34.9936 133.773 34.7376 133.773 34.2768C133.773 33.816 133.517 33.4064 133.005 33.048C132.544 32.6384 131.853 32.4336 130.931 32.4336C127.705 32.4336 124.787 35.3264 122.176 41.112C119.718 46.488 118.489 51.5824 118.489 56.3952C118.489 59.3648 119.129 60.8496 120.409 60.8496C121.741 60.8496 123.328 59.7488 125.171 57.5472C127.065 55.2944 128.806 52.6832 130.393 49.7136C133.824 43.4672 135.846 39.448 136.461 37.656C137.075 35.864 137.741 34.968 138.457 34.968C139.737 34.968 140.377 36.0432 140.377 38.1936C140.377 38.8592 140.301 39.6272 140.147 40.4976C138.457 48.6896 137.536 53.4256 137.382 54.7056C137.28 55.9856 137.229 56.9072 137.229 57.4704C137.229 59.928 137.817 61.1568 138.995 61.1568C140.326 61.1568 142.195 59.3904 144.601 55.8576C147.008 52.3248 149.081 48.792 150.822 45.2592L153.433 39.96H155.507C155.2 40.5744 154.79 41.4192 154.278 42.4944C153.817 43.5184 152.87 45.3872 151.437 48.1008C150.003 50.7632 148.621 53.1184 147.289 55.1664C146.009 57.2144 144.55 59.0832 142.912 60.7728C141.325 62.4112 139.942 63.2304 138.765 63.2304C134.976 63.2304 133.081 60.4656 133.081 54.936C133.081 53.0928 133.286 50.9424 133.696 48.4848H133.158C127.936 58.2128 123.558 63.0768 120.025 63.0768ZM180.73 19.9152C179.245 25.2912 178.068 29.7712 177.197 33.3552C176.378 36.888 175.457 41.0096 174.432 45.72C173.46 50.3792 172.973 54.1168 172.973 56.9328C172.973 59.7488 173.613 61.1568 174.893 61.1568C176.276 61.1568 178.17 59.3904 180.576 55.8576C183.034 52.3248 185.133 48.792 186.874 45.2592L189.408 39.96H191.482C191.175 40.5744 190.765 41.4192 190.253 42.4944C189.792 43.5184 188.845 45.3872 187.412 48.1008C185.978 50.7632 184.596 53.1184 183.265 55.1664C181.984 57.2144 180.525 59.0832 178.887 60.7728C177.248 62.4112 175.84 63.2304 174.663 63.2304C170.977 63.2304 169.133 60.5168 169.133 55.0896C169.133 53.0928 169.415 50.4816 169.978 47.256H169.364C163.681 57.8032 159.073 63.0768 155.54 63.0768C151.495 63.0768 149.473 60.0304 149.473 53.9376C149.473 50.4048 150.394 46.5392 152.237 42.3408C154.797 36.6576 158.048 32.9456 161.991 31.2048C163.373 30.6416 164.756 30.36 166.138 30.36C167.572 30.36 168.698 30.7696 169.517 31.5888C170.336 32.408 170.746 33.3296 170.746 34.3536C170.746 34.8144 170.49 35.0448 169.978 35.0448C169.517 34.9936 169.287 34.7376 169.287 34.2768C169.287 33.816 169.031 33.4064 168.519 33.048C168.058 32.6384 167.367 32.4336 166.445 32.4336C163.22 32.4336 160.301 35.3264 157.69 41.112C155.232 46.488 154.004 51.5824 154.004 56.3952C154.004 59.3648 154.644 60.8496 155.924 60.8496C157.664 60.8496 159.84 58.9552 162.452 55.1664C165.063 51.3776 167.341 47.3072 169.287 42.9552C171.284 38.6032 172.692 34.6352 173.511 31.0512C174.381 27.416 175.687 22.4752 177.428 16.2288C178.554 12.184 180.039 10.1616 181.882 10.1616C182.292 10.1616 182.599 10.3152 182.804 10.6224C183.008 10.8784 183.085 11.16 183.034 11.4672C182.983 11.7232 182.215 14.5392 180.73 19.9152ZM198.759 21.9888H198.912C199.373 22.04 199.732 22.2448 199.988 22.6032C200.244 22.9616 200.372 23.3456 200.372 23.7552C200.372 24.1136 200.013 24.9072 199.296 26.136C198.631 27.3648 198.298 28.3632 198.298 29.1312C198.298 29.848 198.4 30.5392 198.605 31.2048C198.81 31.8192 199.45 33.3552 200.525 35.8128C202.88 41.1888 204.058 46.0016 204.058 50.2512C204.058 54.4496 202.906 57.9312 200.602 60.696C198.349 63.4608 195.636 64.8432 192.461 64.8432C189.338 64.8432 187.777 62.9488 187.777 59.16C187.777 55.32 189.133 51.224 191.847 46.872C193.434 44.3632 195.149 42.4688 196.992 41.1888C197.504 40.8304 197.837 40.9072 197.991 41.4192C198.196 41.9312 198.093 42.3408 197.684 42.648C194.714 44.7984 192.41 48.2032 190.772 52.8624C189.287 57.0608 189.133 59.9792 190.311 61.6176C190.72 62.232 191.309 62.5392 192.077 62.5392C194.33 62.5392 196.096 61.0288 197.376 58.008C198.656 54.9872 199.296 51.224 199.296 46.7184C199.296 42.8272 198.836 39.2176 197.914 35.8896C196.992 32.5616 196.48 30.6416 196.378 30.1296C194.842 33.048 193.178 36.3248 191.386 39.96H189.312C192.231 34.1744 194.484 29.8224 196.071 26.904C196.276 23.6272 197.172 21.9888 198.759 21.9888Z" fill="#0F005C"/>
</svg>
